<?xml version="1.0" encoding="UTF-8" standalone="no"?>
<svg
   xmlns:dc="http://purl.org/dc/elements/1.1/"
   xmlns:cc="http://creativecommons.org/ns#"
   xmlns:rdf="http://www.w3.org/1999/02/22-rdf-syntax-ns#"
   xmlns:svg="http://www.w3.org/2000/svg"
   xmlns="http://www.w3.org/2000/svg"
   xmlns:sodipodi="http://sodipodi.sourceforge.net/DTD/sodipodi-0.dtd"
   xmlns:inkscape="http://www.inkscape.org/namespaces/inkscape"
   inkscape:version="1.0 (4035a4fb49, 2020-05-01)"
   sodipodi:docname="panel-icon.svg"
   id="svg98"
   enable-background="new 0.0 0.0 500.0 500.0"
   viewBox="0.0 0.0 500.0 500.0"
   overflow="visible"
   height="500.0px"
   width="500.0px"
   version="1.1">
  <metadata
     id="metadata102">
    <rdf:RDF>
      <cc:Work
         rdf:about="">
        <dc:format>image/svg+xml</dc:format>
        <dc:type
           rdf:resource="http://purl.org/dc/dcmitype/StillImage" />
      </cc:Work>
    </rdf:RDF>
  </metadata>
  <sodipodi:namedview
     inkscape:current-layer="svg98"
     inkscape:window-maximized="1"
     inkscape:window-y="0"
     inkscape:window-x="0"
     inkscape:cy="250"
     inkscape:cx="250"
     inkscape:zoom="1.678"
     showgrid="false"
     id="namedview100"
     inkscape:window-height="1382"
     inkscape:window-width="2560"
     inkscape:pageshadow="2"
     inkscape:pageopacity="0"
     guidetolerance="10"
     gridtolerance="10"
     objecttolerance="10"
     borderopacity="1"
     bordercolor="#666666"
     pagecolor="#ffffff"
     inkscape:document-rotation="0" />
  <defs
     id="defs2" />
  <path
     style="stroke-width:1.38414"
     id="path6"
     d="m 435.90711,63.96483 -0.27682,-0.276837 c -4.4291,-4.429394 -6.64365,-9.78158 -6.64365,-16.056555 0,-6.228836 2.21455,-11.557952 6.64365,-15.987346 C 440.01325,27.214697 445.34202,25 451.61658,25 c 6.27458,0 11.60336,2.214697 15.98629,6.644092 4.4291,4.429394 6.64365,9.75851 6.64365,15.987346 0,6.274975 -2.21455,11.627161 -6.64365,16.056555 -4.38293,4.383256 -9.71171,6.574883 -15.98629,6.574883 -6.13615,0 -11.37262,-2.099348 -15.70947,-6.298046 z"
     stroke-linejoin="round"
     stroke-linecap="round"
     fill="#000000" />
  <path
     id="path8"
     d="M 435.90711,63.96483 412.65433,87.288361"
     stroke-linejoin="round"
     stroke-linecap="round"
     stroke-width="20.7621"
     stroke="#000000"
     fill="none" />
  <path
     style="stroke-width:1.38414"
     id="path10"
     d="m 183.44833,109.98901 9.61945,-15.77972 0.41523,-0.622884 0.27682,-0.415255 0.62284,-0.96893 0.62285,-1.03814 0.55363,-0.761302 0.27682,-0.415256 0.62284,-0.830511 0.27682,-0.415256 0.55364,-0.761302 0.34602,-0.415256 0.41523,-0.553674 0.62285,-0.761302 0.34602,-0.415256 0.62284,-0.761302 0.27682,-0.276837 0.69205,-0.830512 0.34602,-0.346046 0.62284,-0.692093 0.62285,-0.692093 1.45329,-1.384186 0.27682,-0.346046 0.83046,-0.761303 0.34602,-0.276837 0.69205,-0.622883 0.34602,-0.276838 0.83046,-0.761302 0.34602,-0.276837 0.69205,-0.553674 0.41523,-0.346047 0.69205,-0.553674 0.76125,-0.484465 0.34602,-0.276837 0.83046,-0.622884 0.34602,-0.207628 0.76125,-0.553674 0.76126,-0.484465 0.41522,-0.276837 0.83046,-0.484465 0.41523,-0.207628 0.76125,-0.484465 0.89966,-0.484465 0.34603,-0.207628 0.83045,-0.415256 0.76125,-0.415255 0.41523,-0.207628 0.89966,-0.415256 0.89966,-0.346047 0.69205,-0.346046 2.07614,-0.830511 0.62285,-0.207628 0.83045,-0.346047 2.21455,-0.692093 0.96887,-0.346046 2.28375,-0.622884 0.76126,-0.138418 c 16.42457,-4.060277 36.51701,-2.376184 60.2773,5.052278 l 0.89966,0.276837 1.4533,0.484465 0.83045,0.346046 0.62285,0.276838 1.38409,0.622883 0.83046,0.346047 1.24568,0.553674 0.89966,0.346046 0.27682,0.138419 0.41523,0.138419 1.59171,0.692093 0.55364,0.276837 1.4533,0.622883 0.83045,0.415256 1.17648,0.553674 0.96887,0.415256 1.10727,0.553674 0.96887,0.415256 1.17648,0.553674 0.96887,0.484466 1.10727,0.484465 0.96887,0.484465 0.27682,0.138418 0.34602,0.138419 0.55364,0.276837 0.96886,0.484465 0.20762,0.06921 0.27682,0.138419 1.73011,0.830511 0.48444,0.276837 0.48443,0.207628 0.96887,0.484465 0.13841,0.06921 0.41522,0.207628 1.66092,0.830511 0.41522,0.276837 0.55364,0.276837 0.96887,0.484465 0.20761,0.06921 0.27682,0.138418 1.79932,0.96893 0.27682,0.138419 0.55364,0.346046 0.96887,0.484465 1.03807,0.553675 0.96886,0.553674 1.10728,0.553674 0.89966,0.484465 0.41523,0.207628 0.76125,0.484465 0.83046,0.415256 0.41522,0.276837 0.83046,0.484465 0.55364,0.276837 0.62284,0.346047 0.83046,0.484465 1.17648,0.692093 0.83045,0.484465 1.24569,0.692093 0.76125,0.415255 0.41523,0.276838 0.89966,0.484465 0.13841,0.06921 0.41523,0.207628 0.48443,0.346046 c 0.32295,0.138421 0.64592,0.322982 0.96887,0.553674 l 0.48443,0.276838 0.55364,0.346046 0.89966,0.484465 0.34602,0.207628 0.83046,0.484465 0.76125,0.484465 0.41523,0.276837 0.89966,0.484465 0.41523,0.27684 0.69205,0.41525 0.83045,0.48447 0.41523,0.27683 0.83046,0.55368 0.55363,0.27683 1.4533,0.96893 0.41523,0.20763 0.62284,0.41526 0.76126,0.48446 0.41522,0.27684 0.89967,0.55367 0.20761,0.13842 0.20761,0.13842 0.13841,0.0692 0.55364,0.34605 0.83046,0.48446 0.34602,0.20763 0.89966,0.62288 0.13841,0.0692 0.41523,0.27684 c 0.18455,0 0.32295,0.0923 0.41523,0.27684 l 0.96886,0.62288 0.34603,0.20763 0.76125,0.55367 0.69205,0.41526 0.48443,0.34605 0.83046,0.48446 0.34602,0.27684 0.83046,0.55367 0.55363,0.41526 0.13841,0.0692 0.20762,0.13842 0.13841,0.0692 0.89966,0.62288 0.34602,0.20763 0.76125,0.55367 0.69205,0.41526 0.48443,0.34604 0.76125,0.55368 0.34603,0.20763 0.89966,0.62288 0.13841,0.0692 0.34602,0.27684 0.48444,0.34604 0.89966,0.62289 0.34602,0.20762 0.83046,0.62289 0.48443,0.34604 0.62284,0.41526 0.62284,0.48446 0.41523,0.27684 0.96887,0.62289 1.10727,0.83051 c 0.0923,0.23069 0.25375,0.34604 0.48444,0.34604 l 0.55363,0.41526 0.69205,0.48446 0.13841,0.0692 0.34602,0.27684 0.83046,0.62288 1.03807,0.76131 0.76125,0.55367 0.41523,0.27684 0.76125,0.62288 1.4533,1.03814 0.76125,0.55367 0.76126,0.55368 3.39103,2.62995 0.69204,0.55368 3.59865,2.83758 0.20761,0.20763 0.76126,0.55367 0.62284,0.55367 12.80287,10.86586 0.62284,0.48447 c 9.78098,8.81265 18.27007,17.60223 25.46733,26.36874 l 0.48444,0.62288 0.41523,0.55367 0.48443,0.55368 4.91353,6.43646 0.13841,0.20763 0.34603,0.55368 0.34602,0.55367 0.34602,0.48446 0.83046,1.38419 0.48443,0.7613 1.73012,3.18363 0.41523,0.96893 0.55364,1.10735 0.41522,0.96893 0.55364,1.31498 0.27682,0.7613 0.76125,2.35311 0.13841,0.62289 0.0692,0.13842 0.20761,1.03813 0.20762,0.96894 0.34602,2.56074 0.0692,0.27684 v 0.62288 l 0.0692,0.48446 v 0.6921 1.17656 l -0.0692,0.69209 v 0.41525 c -0.27679,2.39927 -0.94578,4.68316 -2.00693,6.85172 l -0.13841,0.27684 c -1.52251,2.90679 -3.82931,5.58288 -6.92047,8.02828 -3.9216,3.13749 -8.97354,5.49061 -15.15583,7.05935 l -0.62285,0.20762 -4.4983,0.89972 -0.69205,0.13842 h -0.20761 l -0.89967,0.13842 -6.43603,0.7613 -0.76126,0.0692 -0.83045,0.0692 c -0.32295,-0.18455 -0.59979,-0.18455 -0.83046,0 l -0.62284,0.0692 h -0.89966 -0.13841 l -0.96887,0.0692 h -0.96886 -1.10728 -3.11421 -1.03807 -0.96887 -1.10727 l -0.96887,-0.0692 h -0.55364 l -1.03807,-0.0692 -1.24568,-0.0692 h -0.62284 l -9.06582,-0.69209 -1.03807,-0.13842 -0.96887,-0.0692 -0.62284,-0.0692 -0.83046,-0.0692 -0.20761,-0.0692 -4.63672,-0.55367 -1.10727,-0.0692 -0.96887,-0.0692 -0.34602,-0.0692 -1.24569,-0.0692 -0.55363,-0.0692 -0.89967,-0.0692 h -0.20761 -0.76125 -0.27682 l -0.76125,-0.0692 h -0.34603 -0.62284 -0.41523 -0.62284 -0.41523 -0.62284 l -8.58138,0.20762 -0.96887,0.0692 h -0.27682 l -0.76125,0.0692 -1.10727,0.0692 -0.96887,0.13842 -1.03807,0.13842 -0.89966,0.0692 -0.20762,0.0692 -0.69204,0.0692 -0.62285,0.13841 -0.41522,0.0692 -0.34603,0.0692 -0.96886,0.20763 -0.96887,0.20763 -1.31489,0.48446 -0.83046,0.34605 -10.44991,6.78251 -0.13841,-0.13842 c -0.46136,0 -0.80738,-0.27683 -1.03807,-0.83051 -0.27682,-0.50754 -1.38409,0.1153 -3.32182,1.86865 l -6.43604,5.53674 -3.66785,3.04521 -0.41523,0.34605 0.20761,-0.20763 -1.66091,1.4534 -0.41523,0.41525 -1.24568,1.03814 -1.3841,1.31498 -0.27681,0.20763 -4.22149,3.87572 -1.59171,1.5226 -0.48443,0.41526 -0.69205,0.7613 -0.41523,0.34605 -2.83739,2.76837 -0.27682,0.20763 -0.69205,0.69209 -0.41523,0.34604 -0.69204,0.6921 -0.27682,0.27683 -1.31489,1.31498 -0.83046,0.7613 -1.17648,1.17656 -0.96886,0.96893 c -0.41525,0.18455 -0.76127,0.5306 -1.03807,1.03814 l -1.10728,1.03814 c -0.3691,0.18455 -0.69206,0.50754 -0.96887,0.96893 l -2.14534,2.07628 -15.22504,14.74158 -0.69204,0.69209 -1.4533,1.38419 -0.69205,0.62288 -0.34602,0.34605 -0.83046,0.7613 -0.27682,0.27684 -1.4533,1.38418 -0.69205,0.62289 -1.24568,1.24576 -0.96887,0.83051 -0.55363,0.48447 -0.55364,0.55367 c -0.27682,0.0461 -0.43829,0.18458 -0.48443,0.41526 l -2.28376,1.5226 -0.55364,-0.55367 -0.69205,-0.55368 -0.55363,-0.62288 -0.34603,-0.34605 -0.69204,-0.62288 -4.22149,-3.80651 -0.62284,-0.55367 -0.48444,-0.48447 -0.69204,-0.62288 -3.94467,-3.39126 -0.48443,-0.41525 -0.48444,-0.41526 -0.69204,-0.62288 -1.24569,-1.10735 -0.76125,-0.62289 -0.62284,-0.62288 -7.75093,-7.12856 -0.20762,-0.20762 -0.69204,-0.6921 -0.34603,-0.27683 -2.83739,-2.76838 c -0.0461,-0.32297 -0.18453,-0.48446 -0.41523,-0.48446 l -0.55364,-0.48447 -0.48443,-0.48446 -0.62284,-0.62288 -0.48443,-0.48447 -0.48444,-0.41525 -0.48443,-0.55368 -0.62284,-0.55367 -0.48443,-0.55368 -0.48444,-0.41525 -0.48443,-0.55368 -0.62284,-0.55367 -0.48444,-0.55368 -0.48443,-0.41525 -0.48443,-0.55368 -0.62284,-0.62288 -0.48444,-0.48447 -0.48443,-0.48446 -0.48443,-0.48447 -0.76125,-0.7613 -0.48444,-0.55367 -1.4533,-1.4534 -0.41523,-0.41525 -0.55363,-0.55368 -0.34603,-0.41525 -0.76125,-0.7613 -0.27682,-0.27684 -0.76125,-0.7613 -0.20761,-0.20763 -3.52944,-3.7373 -10.72673,-11.55796 -0.41523,-0.41525 -6.92047,-7.75144 c 0,-0.36912 -0.16148,-0.55368 -0.48444,-0.55368 l -0.48443,-0.55367 -0.27682,-0.34605 -3.87546,-4.4986 -0.69205,-0.7613 -0.41523,-0.48447 -0.41522,-0.55367 -0.55364,-0.62289 -0.41523,-0.48446 -3.73705,-4.4986 -0.48444,-0.62289 -0.62284,-0.69209 -0.34602,-0.41526 -0.83046,-1.03814 -0.69205,-0.83051 -0.27682,-0.34604 -0.62284,-0.76131 -0.27682,-0.34604 -0.34602,-0.41526 -0.27682,-0.34604 -0.48443,-0.62289 -0.27682,-0.34604 -1.79932,-2.42233 -0.55364,-0.7613 -0.41523,-0.55368 -0.27682,-0.41525 -0.89966,-1.31498 -0.55364,-0.7613 -0.34602,-0.41526 -0.48443,-0.7613 -1.59171,-2.28391 -0.55364,-0.7613 -0.76125,-1.10735 -0.55364,-0.83051 -0.20761,-0.34604 -0.62285,-0.83052 -1.5225,-2.35311 -0.48443,-0.69209 -1.52251,-2.42233 -0.55363,-0.83051 -1.52251,-2.28391 -0.48443,-0.7613 -0.55364,-0.7613 -1.03807,-1.66103 -0.48443,-0.7613 -1.59171,-2.42232 -0.34602,-0.55368 -1.79933,-2.976 -0.0692,-0.13841 -3.04501,-4.91386 -0.13841,-0.20763 -2.9066,-4.98307 -0.20761,-0.34605 -0.89966,-1.5226 c 0,-0.36912 -0.11534,-0.57675 -0.34602,-0.62289 l -0.69205,-1.17655 -0.48443,-0.89972 -0.62285,-1.10735 -0.41523,-0.76131 -4.77512,-9.55088 -0.13841,-0.20762 0.83046,-0.83052 0.41523,-0.41525 1.66091,-1.66103 0.41523,-0.41525 4.08307,-4.01414 0.76126,-0.7613 1.31489,-1.38419 0.62284,-0.62288 0.55364,-0.55368 0.55363,-0.55367 0.41523,-0.41526 0.55364,-0.55367 0.55364,-0.55367 0.55363,-0.55368 0.41523,-0.41525 0.55364,-0.55368 0.55364,-0.55367 0.48443,-0.55368 0.48443,-0.48446 0.41523,-0.48447 1.3841,-1.5226 0.55363,-0.62289 1.66092,-1.86865 0.89966,-1.24576 3.66785,-4.56782 c 1.75319,-2.21469 3.4141,-4.61394 4.98274,-7.19776 l 1.59171,-3.11442 -0.20762,0.27684 -0.20761,0.27683 -0.62285,0.6921 0.89967,-1.79945 1.24568,-1.59181 3.46024,-4.29097 z m 128.92837,13.56502 c -3.09113,-2.90679 -6.78206,-4.36019 -11.07275,-4.36019 -4.56751,0 -8.44297,1.61489 -11.62639,4.84465 -3.22955,3.22978 -4.84433,7.10549 -4.84433,11.62716 0,4.56782 1.61478,8.44354 4.84433,11.62717 3.18342,3.22976 7.05888,4.84465 11.62639,4.84465 4.56751,0 8.44299,-1.61489 11.62639,-4.84465 3.22955,-3.18363 4.84433,-7.05935 4.84433,-11.62717 0,-4.52167 -1.61478,-8.39738 -4.84433,-11.62716 z m -44.0834,10.38139 c 0,-4.52167 -1.61478,-8.39738 -4.84433,-11.62716 l -0.55363,-0.48446 c -3.09114,-2.90679 -6.78207,-4.36019 -11.07276,-4.36019 -4.56751,0 -8.44297,1.61489 -11.62639,4.84465 -3.22955,3.22978 -4.84433,7.10549 -4.84433,11.62716 0,4.56782 1.61478,8.44354 4.84433,11.62716 3.18342,3.22977 7.05888,4.84465 11.62639,4.84465 4.56751,0 8.44299,-1.61488 11.62639,-4.84465 3.22955,-3.18362 4.84433,-7.05934 4.84433,-11.62716 z m 49.41217,51.3533 c 0,-4.52168 -1.6148,-8.3974 -4.84433,-11.62717 l -0.55364,-0.48446 c -3.09115,-2.90678 -6.78208,-4.36019 -11.07275,-4.36019 -4.56752,0 -8.44298,1.61489 -11.6264,4.84465 -3.22953,3.22978 -4.84433,7.1055 -4.84433,11.62717 0,4.56781 1.6148,8.44352 4.84433,11.62716 3.18344,3.22976 7.0589,4.84465 11.6264,4.84465 4.56751,0 8.44297,-1.61489 11.62639,-4.84465 3.22953,-3.18363 4.84433,-7.05934 4.84433,-11.62716 z m -55.64059,11.28111 c 3.22955,-3.18363 4.84433,-7.05933 4.84433,-11.62716 0,-4.52168 -1.61478,-8.3974 -4.84433,-11.62716 l -0.55364,-0.48447 c -3.09114,-2.90677 -6.78206,-4.36018 -11.07275,-4.36018 -4.56751,0 -8.44298,1.61489 -11.62639,4.84465 -3.22955,3.22977 -4.84433,7.10549 -4.84433,11.62716 0,4.56781 1.61478,8.44352 4.84433,11.62716 3.18341,3.22976 7.05888,4.84465 11.62639,4.84465 4.56751,0 8.44299,-1.61489 11.62639,-4.84465 z m -74.32586,-90.31812 1.73012,-1.93786 0.89966,-1.31498 -0.0692,-0.13842 z"
     stroke-linejoin="round"
     stroke-linecap="round"
     fill="#000000" />
  <path
     style="stroke-width:1.38414"
     id="path12"
     d="m 334.66062,91.856174 h 0.0692 z"
     stroke-linejoin="round"
     stroke-linecap="round"
     fill="#000000" />
  <path
     style="stroke-width:1.38414"
     id="path14"
     d="m 347.11747,98.984731 0.0692,0.06921 z"
     stroke-linejoin="round"
     stroke-linecap="round"
     fill="#000000" />
  <path
     style="stroke-width:1.38414"
     id="path16"
     d="m 361.65046,108.05115 0.0692,0.0692 z"
     stroke-linejoin="round"
     stroke-linecap="round"
     fill="#000000" />
  <path
     style="stroke-width:1.38414"
     id="path18"
     d="m 363.7266,109.43533 h 0.0692 z"
     stroke-linejoin="round"
     stroke-linecap="round"
     fill="#000000" />
  <path
     style="stroke-width:1.38414"
     id="path20"
     d="m 366.91002,111.51161 0.0692,0.0692 z"
     stroke-linejoin="round"
     stroke-linecap="round"
     fill="#000000" />
  <path
     style="stroke-width:1.38414"
     id="path22"
     d="m 369.95502,113.58789 h 0.0692 z"
     stroke-linejoin="round"
     stroke-linecap="round"
     fill="#000000" />
  <path
     style="stroke-width:1.38414"
     id="path24"
     d="m 374.10731,116.42547 h 0.0692 z"
     stroke-linejoin="round"
     stroke-linecap="round"
     fill="#000000" />
  <path
     style="stroke-width:1.38414"
     id="path26"
     d="m 409.47091,229.58266 h -0.0692 z"
     stroke-linejoin="round"
     stroke-linecap="round"
     fill="#000000" />
  <path
     style="stroke-width:1.38414"
     id="path28"
     d="m 408.50205,229.58266 h -0.0692 z"
     stroke-linejoin="round"
     stroke-linecap="round"
     fill="#000000" />
  <path
     style="stroke-width:1.38414"
     id="path30"
     d="m 403.24249,229.58266 h -0.0692 z"
     stroke-linejoin="round"
     stroke-linecap="round"
     fill="#000000" />
  <path
     style="stroke-width:1.38414"
     id="path32"
     d="m 402.27362,229.58266 h -0.0692 z"
     stroke-linejoin="round"
     stroke-linecap="round"
     fill="#000000" />
  <path
     style="stroke-width:1.38414"
     id="path34"
     d="m 401.16635,229.58266 h -0.0692 z"
     stroke-linejoin="round"
     stroke-linecap="round"
     fill="#000000" />
  <path
     style="stroke-width:1.38414"
     id="path36"
     d="m 386.63336,228.54452 h -0.0692 z"
     stroke-linejoin="round"
     stroke-linecap="round"
     fill="#000000" />
  <path
     style="stroke-width:1.38414"
     id="path38"
     d="m 359.64352,227.50638 h -0.0692 z"
     stroke-linejoin="round"
     stroke-linecap="round"
     fill="#000000" />
  <path
     style="stroke-width:1.38414"
     id="path40"
     d="m 355.49124,227.92164 h -0.0692 z"
     stroke-linejoin="round"
     stroke-linecap="round"
     fill="#000000" />
  <path
     style="stroke-width:1.38414"
     id="path42"
     d="m 351.33896,228.61373 h -0.0692 z"
     stroke-linejoin="round"
     stroke-linecap="round"
     fill="#000000" />
  <path
     id="path44"
     d="m 337.77483,236.43438 c 15.96322,19.88614 28.74303,39.38009 38.33941,58.48185 16.79369,32.85135 19.35426,55.06754 7.68172,66.64855 -11.71866,11.48874 -34.18712,8.97413 -67.40538,-7.54382 -33.03372,-16.56408 -67.17472,-42.37914 -102.42297,-77.44519 -35.15601,-34.92763 -61.13084,-68.81711 -77.92451,-101.66845 -16.56299,-32.94362 -18.96209,-55.1598 -7.19729,-66.64854 10.10389,-10.058419 28.30473,-9.481673 54.60252,1.73023 l 0.69205,0.27684"
     stroke-linejoin="round"
     stroke-linecap="round"
     stroke-width="20.7621"
     stroke="#000000"
     fill="none" />
  <path
     style="stroke-width:1.38414"
     id="path46"
     d="m 300.05827,267.64777 h -0.0692 z"
     stroke-linejoin="round"
     stroke-linecap="round"
     fill="#000000" />
  <path
     id="path48"
     d="m 408.57125,93.032732 c 43.5067,43.509578 65.26004,96.016358 65.26004,157.520348 0,61.55012 -21.75334,114.07995 -65.26004,157.58955 -43.55283,43.50958 -96.07921,65.26436 -157.57912,65.26436 -61.54606,0 -114.07245,-21.75478 -157.579128,-65.26436 C 49.906306,364.63303 28.15296,312.1032 28.15296,250.55308 c 0,-61.504 21.753346,-114.01078 65.260042,-157.520348 43.506688,-43.555712 96.033078,-65.333569 157.579128,-65.33357 61.49991,0 114.02629,21.777858 157.57912,65.33357 z"
     stroke-linejoin="round"
     stroke-linecap="round"
     stroke-width="20.7621"
     stroke="#000000"
     fill="none" />
  <path
     d="m 116.11133,177.25977 -1.45313,0.27734 -1.10742,0.41601 -0.62109,0.20704 -1.45508,0.62304 -0.75977,0.41602 -0.34765,0.20703 -0.96875,0.48437 -0.6211,0.34571 -0.41601,0.27734 -1.03906,0.62305 -0.48438,0.20703 -0.48437,0.3457 -0.89844,0.55469 -1.17774,0.69141 -0.6914,0.48437 -2.49219,1.66211 -0.62109,0.41406 -2.423832,1.73047 -0.484375,0.34571 c -1.291825,0.92278 -2.514557,1.82255 -3.667969,2.69921 l -0.484375,0.34571 c -4.936603,3.7373 -8.602854,6.96722 -11.001953,9.68945 L 81.787109,201 l -0.416015,0.41406 -0.552735,0.69336 -0.484375,0.55274 -0.347656,0.41601 -0.621094,0.83008 -0.138672,0.20703 -0.138671,0.13867 -0.623047,0.83008 -0.277344,0.3457 -0.623047,0.83204 -0.275391,0.41406 -0.416015,0.55469 -0.830078,1.17578 -0.554688,0.83008 -0.27539,0.48437 -0.484375,0.69336 -0.484375,0.83008 -0.277344,0.48437 -0.900391,1.45313 -0.138672,0.3457 -0.552734,1.03906 -0.345703,0.55274 -0.138672,0.34765 -0.07031,0.13672 -0.484374,0.97071 -0.275391,0.55273 -0.277344,0.55273 -0.484375,1.03907 -0.484375,1.10742 -0.345703,0.96875 -0.554688,1.31445 -0.27539,0.76172 -0.277344,0.96875 -0.484375,1.45313 -0.208984,0.62304 -0.759766,2.69922 -0.07031,0.27734 -0.06836,0.34571 -0.207031,0.90039 -0.208984,1.03711 -0.623047,3.2539 -0.138672,0.83008 v 0.13867 l -0.136719,0.9004 -0.138672,1.10546 c -0.5075,4.15256 -0.622522,8.46783 -0.345703,12.94336 l 0.552735,5.8125 0.138671,0.83203 v 0.20704 l 0.138672,0.6914 0.96875,5.53711 0.138672,0.69141 0.759766,3.39258 0.208984,0.83007 0.830078,3.32227 0.207031,0.83008 2.007813,6.57422 0.138672,0.48632 0.898437,2.62891 0.07031,0.27734 1.037109,2.97461 0.07031,0.13868 3.875,10.03515 0.277343,0.62305 1.867188,4.56836 0.208984,0.3457 0.691407,1.66211 0.277343,0.62305 0.623047,1.38281 0.414063,0.90039 0.554687,1.17578 0.414063,0.90039 3.115234,6.57422 0.138672,0.27734 0.898438,1.79883 0.07031,0.13867 0.898438,1.86915 0.208984,0.41601 0.552734,1.10742 2.976563,5.67383 0.484375,0.90039 0.623047,1.10742 0.414062,0.90039 0.691406,1.17579 0.416016,0.90039 0.691406,1.17578 0.347657,0.6914 0.759765,1.45508 0.345703,0.55274 3.738282,6.71289 0.414065,0.69336 0.83203,1.52148 0.13672,0.13867 1.5918,2.76758 0.48437,0.83203 0.69336,1.24414 0.41406,0.69336 0.27735,0.48438 0.48437,0.83008 0.76172,1.24609 0.48438,0.76172 0.76172,1.24609 0.27539,0.55274 0.34765,0.48437 0.55274,0.96875 0.62304,1.03906 0.55274,0.83008 0.76172,1.2461 0.3457,0.62304 0.34766,0.55274 0.48437,0.83007 0.75977,1.17774 0.48437,0.76172 0.20899,0.3457 0.55273,0.89844 0.69141,1.10742 0.55468,0.90039 0.76172,1.17578 0.27539,0.48438 0.41602,0.62304 0.55273,0.83204 0.76172,1.17578 0.3457,0.55273 1.66211,2.49219 0.41407,0.6914 1.73047,2.49219 0.3457,0.62305 1.66211,2.42187 c 0.27682,0.0462 0.41406,0.25394 0.41406,0.62305 l 0.41602,0.55469 0.55273,0.83008 0.90039,1.24609 0.20703,0.3457 0.48438,0.62305 0.55469,0.83008 1.66015,2.2832 0.48438,0.69336 1.73047,2.35352 0.3457,0.48437 0.48437,0.62305 0.48438,0.6914 0.27734,0.41602 0.69141,0.89844 0.20898,0.3457 0.62305,0.76172 0.27539,0.3457 0.55469,0.76172 0.55273,0.69141 1.79883,2.35351 0.20898,0.27735 0.62305,0.76172 0.41406,0.55273 0.41602,0.48437 0.62305,0.83204 1.9375,2.35156 0.13867,0.20898 0.62304,0.69141 0.41407,0.55273 0.48437,0.62305 0.62305,0.69336 2.07617,2.49023 1.66016,1.86914 0.41601,0.55469 9.06641,9.89649 0.13867,0.13867 0.96875,0.96875 0.13867,0.20703 0.75977,0.76172 0.20898,0.20703 0.89844,0.90039 0.20898,0.20703 0.83008,0.76172 0.13868,0.20703 7.82031,7.12891 0.55273,0.48437 0.55274,0.41602 0.55468,0.41406 3.5293,2.83789 0.62305,0.48438 0.62304,0.41601 0.27735,0.20703 2.69726,1.9375 0.55469,0.34766 1.24609,0.83008 0.83008,0.48437 0.55274,0.34571 0.3457,0.20703 1.5918,0.96875 0.55468,0.27734 1.38477,0.76172 0.69141,0.3457 1.45312,0.69141 0.62305,0.27734 1.5918,0.62305 0.41406,0.20703 0.20898,0.0703 0.96875,0.34571 1.52149,0.55273 0.48437,0.13867 3.59961,0.83203 0.41406,0.0684 h 0.20899 l 0.20703,0.0684 0.69141,0.0703 h 0.20898 l 0.89844,0.0684 h 0.13867 l 0.96875,0.0703 h 1.03906 l 3.39063,-0.27735 0.48437,-0.0684 2.35352,-0.55468 0.89844,-0.27735 1.24609,-0.48437 0.96875,-0.41406 0.6914,-0.34766 0.48438,-0.27539 c 0.23069,-0.18455 0.50908,-0.34596 0.83203,-0.48438 l 0.3457,-0.27734 0.76172,-0.55469 0.69141,-0.55273 0.76172,-0.62305 2.21484,-2.35351 1.79883,-2.42188 0.83008,-1.38477 0.20703,-0.41406 0.55469,-0.96875 0.20703,-0.41601 0.27734,-0.55274 0.83008,-1.86914 0.13867,-0.41601 0.41406,-1.03711 0.41602,-1.17774 0.27734,-0.76172 0.83008,-2.6289 0.0684,-0.34571 c 1.84546,-6.96705 2.86038,-15.52704 3.04492,-25.67773 v -1.17578 l -0.27539,-13.21875 -0.62304,-10.03516 v -0.90039 -0.27734 l -0.0703,-0.62305 v -0.41406 -0.62305 l -0.0684,-0.55469 v -0.41406 l -0.0703,-1.38476 v -0.13868 c -0.13841,-4.56781 -0.11423,-8.53611 0.0703,-11.90429 l 0.0684,-1.03711 v -0.48438 l 0.0703,-0.83007 v -0.20899 l 0.0684,-0.76172 v -0.13672 l 0.13867,-1.10742 0.13867,-0.96875 0.0684,-0.76172 0.0703,-0.27734 0.27734,-1.52344 0.13672,-0.3457 0.0703,-0.3457 0.27734,-0.9004 0.3457,-1.0371 0.41407,-1.2461 0.3457,-0.90039 0.34765,-0.83008 0.20704,-0.41406 0.3457,-0.83203 0.41601,-0.89844 0.2754,-0.62305 0.34765,-0.55468 0.41406,-0.89844 0.27735,-0.41602 0.41601,-0.76171 0.48438,-0.83008 0.20703,-0.41602 0.48437,-0.83008 0.69141,-1.03711 0.55469,-0.96875 0.27539,-0.41601 0.27734,-0.34571 0.13867,-0.27734 5.53711,-8.30469 -3.87695,-2.90625 -0.3457,-0.27734 -0.76172,-0.55469 -0.48438,-0.41406 c -0.18454,0 -0.32178,-0.115 -0.41406,-0.3457 l -1.17773,-0.97071 -0.75977,-0.62109 -0.3457,-0.27734 -0.83203,-0.69336 -0.41407,-0.34571 -1.38476,-1.10742 -1.03711,-0.89844 -0.20898,-0.13867 -5.74415,-4.98437 -0.62109,-0.55274 -0.62305,-0.55273 -0.48437,-0.41602 -11.76563,-10.93554 -0.6914,-0.62305 -0.55469,-0.55274 -0.89844,-0.90039 -5.33008,-5.32812 -0.89843,-0.83203 -1.2461,-1.24414 -1.03906,-1.10742 -0.83008,-0.9004 -0.55273,-0.55468 -0.41602,-0.41406 -3.18359,-3.39258 -0.76172,-0.83008 -0.75977,-0.76172 -0.3457,-0.3457 -0.62305,-0.69141 -5.05273,-5.53711 -0.27734,-0.27734 -0.55274,-0.62305 -0.48437,-0.48437 -0.55469,-0.6211 -0.48438,-0.55469 -0.41406,-0.41601 -0.55469,-0.69141 -0.41406,-0.41601 -1.59179,-1.79883 -0.27735,-0.3457 -0.69141,-0.76172 -0.34765,-0.34571 -0.62109,-0.76172 -2.76954,-3.18359 -0.62304,-0.76172 -0.34571,-0.3457 -0.55273,-0.76172 -0.27734,-0.27539 -0.96875,-1.10742 -1.45313,-1.73047 -0.62305,-0.69141 -0.41601,-0.55468 -0.96875,-1.10743 -0.55274,-0.6914 -0.27734,-0.34571 -0.69141,-0.83203 -0.27734,-0.27539 -0.62305,-0.76172 -0.3457,-0.48437 -0.62305,-0.69336 -0.3457,-0.41406 -0.48438,-0.62305 -0.55468,-0.69141 -0.34571,-0.41601 -0.55273,-0.76172 -0.27734,-0.27734 -0.69141,-0.89844 -0.27734,-0.3457 -0.62305,-0.69336 -0.3457,-0.41407 -0.55274,-0.76172 -0.55469,-0.62304 -0.27734,-0.34571 -0.62305,-0.83203 -0.27539,-0.3457 -0.62304,-0.75977 -0.27735,-0.41601 -0.62304,-0.76172 -0.20704,-0.27734 -0.13867,-0.13672 -0.48437,-0.62305 -0.55274,-0.69336 -0.34765,-0.41406 -0.55274,-0.76172 -0.27734,-0.3457 -0.69141,-0.83203 -0.3457,-0.41407 -0.90039,-1.24609 -0.83008,-1.10742 -0.41601,-0.55274 -0.62305,-0.83203 -0.27539,-0.27539 -0.62305,-0.83203 -0.41601,-0.55273 -0.41407,-0.55469 -0.48633,-0.6211 -0.27539,-0.41601 -0.69336,-0.90039 -0.27539,-0.3457 -0.55468,-0.76172 -0.34571,-0.41407 -0.48437,-0.69336 -0.76172,-1.03711 -0.62305,-0.90039 -0.27539,-0.27734 -0.55469,-0.75977 -0.76171,-1.17773 -0.55274,-0.76172 -0.27734,-0.3457 -0.62305,-0.89844 -0.3457,-0.48437 -0.34571,-0.55469 -0.55273,-0.76172 -0.27734,-0.3457 -0.62305,-0.83008 -0.27734,-0.48438 -0.55274,-0.76171 -0.69336,-0.96876 -0.62109,-0.90039 -0.27735,-0.41406 -0.55468,-0.76172 -0.34571,-0.55468 -0.3457,-0.55274 -0.55273,-0.76172 -0.27735,-0.41406 -0.55469,-0.83203 -0.6914,-1.03711 -0.55274,-0.90039 -0.27734,-0.41406 -0.48437,-0.69336 -0.76172,-1.17578 -0.48438,-0.83008 -0.76172,-1.2461 -0.41406,-0.62304 -0.27734,-0.41602 -0.55469,-0.89844 -0.69141,-1.10742 -0.55273,-0.83203 -0.69336,-1.24414 -0.41406,-0.69336 -0.27735,-0.41406 -0.48437,-0.83203 -0.76172,-1.2461 -0.41406,-0.75976 -0.76172,-1.31641 -0.3457,-0.62109 -0.27735,-0.41602 -0.48437,-0.96875 -0.62305,-1.10742 -0.55273,-0.90039 -0.55469,-1.10742 -0.48438,-0.96875 -0.62304,-1.10742 z m 25.25976,80.83789 c 8.62752,0 16.05674,2.90517 22.28516,8.71875 l 1.10742,1.03906 c 6.45911,6.45954 9.6875,14.25695 9.6875,23.39258 0,9.18177 -3.22839,17.00335 -9.6875,23.46289 l -0.20898,0.20703 -0.13672,0.20703 -0.34766,0.27734 c -6.41298,6.45954 -14.20947,9.68946 -23.39062,9.68946 -9.22729,0 -17.04797,-3.22992 -23.46094,-9.68946 -6.4591,-6.45953 -9.6875,-14.28111 -9.6875,-23.46289 0,-9.13562 3.2284,-16.93304 9.6875,-23.39257 l 0.34766,-0.34571 0.3457,-0.3457 c 6.41297,-6.50567 14.23169,-9.75781 23.45898,-9.75781 z"
     style="stroke-width:1.38414"
     id="path50" />
  <path
     style="stroke-width:1.38414"
     id="path52"
     d="m 113.55157,177.95253 0.0692,-0.0692 z"
     stroke-linejoin="round"
     stroke-linecap="round"
     fill="#000000" />
  <path
     style="stroke-width:1.38414"
     id="path54"
     d="m 137.84243,214.56425 0.0692,0.0692 z"
     stroke-linejoin="round"
     stroke-linecap="round"
     fill="#000000" />
  <path
     style="stroke-width:1.38414"
     id="path56"
     d="m 148.22313,229.0982 0.0692,0.0692 z"
     stroke-linejoin="round"
     stroke-linecap="round"
     fill="#000000" />
  <path
     style="stroke-width:1.38414"
     id="path58"
     d="m 151.33734,233.25075 0.0692,0.0692 z"
     stroke-linejoin="round"
     stroke-linecap="round"
     fill="#000000" />
  <path
     style="stroke-width:1.38414"
     id="path60"
     d="m 158.39622,242.31717 0.0692,0.0692 z"
     stroke-linejoin="round"
     stroke-linecap="round"
     fill="#000000" />
  <path
     style="stroke-width:1.38414"
     id="path62"
     d="m 161.026,245.70843 0.0692,0.0692 z"
     stroke-linejoin="round"
     stroke-linecap="round"
     fill="#000000" />
  <path
     style="stroke-width:1.38414"
     id="path64"
     d="m 237.15118,323.7765 0.0692,0.0692 z"
     stroke-linejoin="round"
     stroke-linecap="round"
     fill="#000000" />
  <path
     style="stroke-width:1.38414"
     id="path66"
     d="m 232.37606,340.1099 -0.0692,0.0692 z"
     stroke-linejoin="round"
     stroke-linecap="round"
     fill="#000000" />
  <path
     style="stroke-width:1.38414"
     id="path68"
     d="m 231.26878,342.18618 -0.0692,0.0692 z"
     stroke-linejoin="round"
     stroke-linecap="round"
     fill="#000000" />
  <path
     style="stroke-width:1.38414"
     id="path70"
     d="m 230.23071,344.26245 v 0.0692 z"
     stroke-linejoin="round"
     stroke-linecap="round"
     fill="#000000" />
  <path
     style="stroke-width:1.38414"
     id="path72"
     d="m 228.22378,349.52236 v 0.0692 z"
     stroke-linejoin="round"
     stroke-linecap="round"
     fill="#000000" />
  <path
     style="stroke-width:1.38414"
     id="path74"
     d="m 227.73934,351.11417 v 0.0692 z"
     stroke-linejoin="round"
     stroke-linecap="round"
     fill="#000000" />
  <path
     style="stroke-width:1.38414"
     id="path76"
     d="m 227.18571,354.64385 v 0.0692 z"
     stroke-linejoin="round"
     stroke-linecap="round"
     fill="#000000" />
  <path
     style="stroke-width:1.38414"
     id="path78"
     d="m 211.19942,446.41537 h -0.0692 z"
     stroke-linejoin="round"
     stroke-linecap="round"
     fill="#000000" />
  <path
     style="stroke-width:1.38414"
     id="path80"
     d="m 200.81871,448.49165 h -0.0692 z"
     stroke-linejoin="round"
     stroke-linecap="round"
     fill="#000000" />
  <path
     style="stroke-width:1.38414"
     id="path82"
     d="m 134.03617,394.16235 -0.0692,-0.0692 z"
     stroke-linejoin="round"
     stroke-linecap="round"
     fill="#000000" />
  <path
     style="stroke-width:1.38414"
     id="path84"
     d="m 66.561574,230.13634 v -0.0692 z"
     stroke-linejoin="round"
     stroke-linecap="round"
     fill="#000000" />
  <path
     style="stroke-width:1.38414"
     id="path86"
     d="m 107.32315,181.13616 0.0692,-0.0692 z"
     stroke-linejoin="round"
     stroke-linecap="round"
     fill="#000000" />
  <path
     style="stroke-width:1.38414"
     id="path90"
     d="m 63.654976,435.68793 0.761252,0.69209 c 4.429102,4.42939 6.643652,9.75851 6.643652,15.98735 0,6.27497 -2.21455,11.62716 -6.643652,16.05655 -4.382964,4.38325 -9.711728,6.57488 -15.986288,6.57488 -6.27456,0 -11.603324,-2.19163 -15.986288,-6.57488 C 28.014551,463.99453 25.8,458.64234 25.8,452.36737 c 0,-6.22884 2.214551,-11.55796 6.643652,-15.98735 4.382966,-4.42939 9.71173,-6.64409 15.986288,-6.64409 5.905469,0 10.98048,1.98401 15.225036,5.952 z"
     stroke-linejoin="round"
     stroke-linecap="round"
     fill="#000000" />
  <path
     id="path92"
     d="M 63.654976,435.68793 88.291853,411.04942"
     stroke-linejoin="round"
     stroke-linecap="round"
     stroke-width="20.7621"
     stroke="#000000"
     fill="none" />
</svg>
